<svg xmlns="http://www.w3.org/2000/svg" viewBox="0 0 512 512" width="512" height="512" role="img" aria-label="MCP Quiz Icon">
  <title>MCP Quiz Icon</title>
  <defs>
    <linearGradient id="bg" x1="0" y1="0" x2="1" y2="1">
      <stop offset="0%" stop-color="#7c3aed"/>
      <stop offset="100%" stop-color="#22d3ee"/>
    </linearGradient>
    <radialGradient id="vignette" cx="50%" cy="50%" r="60%">
      <stop offset="60%" stop-color="#0000"/>
      <stop offset="100%" stop-color="#0006"/>
    </radialGradient>
    <filter id="glass" x="-20%" y="-20%" width="140%" height="140%">
      <feGaussianBlur in="SourceGraphic" stdDeviation="0.5" result="blur"/>
      <feComposite in="SourceGraphic" in2="blur" operator="over"/>
    </filter>
  </defs>

  <rect x="0" y="0" width="512" height="512" rx="96" fill="url(#bg)"/>
  <rect x="0" y="0" width="512" height="512" rx="96" fill="url(#vignette)"/>

  <circle cx="256" cy="256" r="192" fill="none" stroke="#ffffff33" stroke-width="18"/>
  <circle cx="256" cy="256" r="192" fill="none" stroke="#ffffff" stroke-opacity="0.9" stroke-width="18" stroke-linecap="round" stroke-dasharray="720 1200" stroke-dashoffset="-160"/>

  <g transform="translate(64,64) scale(16)" fill="#fff" fill-rule="evenodd">
    <path d="M15.688 2.343a2.588 2.588 0 00-3.61 0l-9.626 9.44a.863.863 0 01-1.203 0 .823.823 0 010-1.18l9.626-9.44a4.313 4.313 0 016.016 0 4.116 4.116 0 011.204 3.54 4.3 4.3 0 013.609 1.18l.05.05a4.115 4.115 0 010 5.9l-8.706 8.537a.274.274 0 000 .393l1.788 1.754a.823.823 0 010 1.18.863.863 0 01-1.203 0l-1.788-1.753a1.92 1.92 0 010-2.754l8.706-8.538a2.47 2.47 0 000-3.54l-.05-.049a2.588 2.588 0 00-3.607-.003l-7.172 7.034-.002.002-.098.097a.863.863 0 01-1.204 0 .823.823 0 010-1.18l7.273-7.133a2.47 2.47 0 00-.003-3.537z"/>
    <path d="M14.485 4.703a.823.823 0 000-1.18.863.863 0 00-1.204 0l-7.119 6.982a4.115 4.115 0 000 5.9 4.314 4.314 0 006.016 0l7.12-6.982a.823.823 0 000-1.18.863.863 0 00-1.204 0l-7.119 6.982a2.588 2.588 0 01-3.61 0 2.47 2.47 0 010-3.54l7.12-6.982z"/>
  </g>

  <g filter="url(#glass)">
    <circle cx="386" cy="150" r="50" fill="#ffffff" fill-opacity="0.2"/>
    <circle cx="386" cy="150" r="50" fill="none" stroke="#fff" stroke-opacity="0.35" stroke-width="2"/>
    <text x="386" y="168" text-anchor="middle" font-size="70" font-weight="800" font-family="Inter, ui-sans-serif, system-ui, -apple-system, Segoe UI, Roboto, Helvetica, Arial" fill="#fff">?</text>
  </g>

  <g opacity="0.9">
    <rect x="96" y="92" width="10" height="22" rx="2" fill="#fbbf24" transform="rotate(18 101 103)"/>
    <rect x="420" y="360" width="10" height="22" rx="2" fill="#34d399" transform="rotate(-24 425 371)"/>
    <rect x="150" y="402" width="10" height="22" rx="2" fill="#60a5fa" transform="rotate(12 155 413)"/>
    <polygon points="440,120 452,138 430,138" fill="#ef4444"/>
    <polygon points="84,320 96,338 74,338" fill="#a78bfa"/>
  </g>
</svg>
